# xmcd
#
# Track frame offsets: 
#        150
#        19786
#        34437
#        50514
#        64578
#        79691
#        97823
#        116469
#        132293
#        143921
#
# Disc length: 2320 seconds
#
# Revision: 0
# Processed by: cddbd v1.5.2PL0 Copyright (c) Steve Scherf et al.
# Submitted via: ExactAudioCopy v1.0b3
#
DISCID=80090e0a
DTITLE=Michael Rank and Stag - Deadstock
DYEAR=2014
DGENRE=Country
TTITLE0=Burn The Page
TTITLE1=Idle Hands
TTITLE2=This World On Fire
TTITLE3=Teeth Of The Sun
TTITLE4=Close
TTITLE5=The Stars Were Brighter
TTITLE6=All The Animals
TTITLE7=Little Late For Me
TTITLE8=Son
TTITLE9=Bounty
EXTD=
EXTT0=
EXTT1=
EXTT2=
EXTT3=
EXTT4=
EXTT5=
EXTT6=
EXTT7=
EXTT8=
EXTT9=
PLAYORDER=
